<svg width="100" height="29" viewBox="0 0 100 29" fill="none" xmlns="http://www.w3.org/2000/svg">
<g clip-path="url(#clip0_802_242)">
<path d="M12.8679 10.7051H24.5429L26.3858 5.17212H11.0929H8.12151L6.27508 10.7051L3.42508 19.4858H3.42151L0.532227 28.1922H7.12151L9.60365 20.7205H17.9679L19.8001 15.1945H11.4501L12.8679 10.7051Z" fill="white"/>
<path d="M73.4253 28.2134H92.8289L94.6753 22.7158H81.8181L82.9467 19.5035L91.3682 19.4964L93.2003 13.974L84.7574 13.9811L85.8396 10.7264H97.5503L99.3967 5.19336H80.8324L73.4253 28.2134Z" fill="white"/>
<path d="M45.357 5.7948C44.6177 5.32782 43.1392 5.20753 41.982 5.1297L40.1285 10.6804H43.4035L31.0606 19.5283L32.932 13.9528H29.5535L45.1142 0.35376L35.957 5.13324H35.7606C31.5535 5.39857 29.2677 6.12027 27.9106 9.33961C27.4927 10.5318 27.1427 11.6568 27.1427 11.6568L21.582 28.2311H28.1963L28.7856 26.3597L36.8713 20.5896L34.3177 28.2311H40.9142L46.7392 10.7547C47.0356 10.0542 47.9463 7.079 45.357 5.7948Z" fill="white"/>
<path d="M62.8609 28.2312H69.5109L77.1502 5.1333H70.5502C69.4681 5.1333 68.7716 5.84085 68.7716 5.84085L61.0824 13.7725L59.3324 6.67575C59.2217 6.23 59.1431 5.90099 58.8288 5.58259C58.5395 5.34203 58.2681 5.1333 57.3324 5.1333H52.5324L44.8359 28.2312H51.4681L55.8895 14.8762L57.7181 24.3326L67.3002 14.8515L62.8609 28.2312Z" fill="white"/>
</g>
<defs>
<clipPath id="clip0_802_242">
<rect width="100" height="28.3019" fill="white"/>
</clipPath>
</defs>
</svg>
